PathFileType	4	(X/Y/Z)	C:\Users\Basilio\Documents\Thesis Gigler\squatting_fais\c3dfiles\075\SJ_pre5\markers_experimental.trc
DataRate	CameraRate	NumFrames	NumMarkers	Units	OrigDataRate	OrigDataStartFrame	OrigNumFrames
200.000000	200.000000	4	61	mm	200.000000	735	1470
Frame#	Time	FHD			LBHD			RBHD			C7			T10			CLAV			LSHO			LUUPA			LMUPA			LDUPA			LLEP			LMEP			LRAD			LUL			LRFIN			RSHO			RUPA1			RMUPA			RDUPA			RLEP			RMEP			RRAD			RUL			RUFIN			LASI			RASI			USACR			LSACR			RSACR			LTHI1			LTHI2			LTHI3			LTHI4			LLFC			LMFC			LTIB1			LTIB2			LTIB3			LTIB4			LLMAL			LMMAL			LHEE			LMT1			LMT2			LMT5			RTHI			RTHI2			RTHI3			RTHI4			RLFC			RMFC			RTIB1			RTIB2			RTIB3			RTIB4			RLMAL			RMMAL			RHEE			RMT1			RMT2			RMT5			
		X1	Y1	Z1	X2	Y2	Z2	X3	Y3	Z3	X4	Y4	Z4	X5	Y5	Z5	X6	Y6	Z6	X7	Y7	Z7	X8	Y8	Z8	X9	Y9	Z9	X10	Y10	Z10	X11	Y11	Z11	X12	Y12	Z12	X13	Y13	Z13	X14	Y14	Z14	X15	Y15	Z15	X16	Y16	Z16	X17	Y17	Z17	X18	Y18	Z18	X19	Y19	Z19	X20	Y20	Z20	X21	Y21	Z21	X22	Y22	Z22	X23	Y23	Z23	X24	Y24	Z24	X25	Y25	Z25	X26	Y26	Z26	X27	Y27	Z27	X28	Y28	Z28	X29	Y29	Z29	X30	Y30	Z30	X31	Y31	Z31	X32	Y32	Z32	X33	Y33	Z33	X34	Y34	Z34	X35	Y35	Z35	X36	Y36	Z36	X37	Y37	Z37	X38	Y38	Z38	X39	Y39	Z39	X40	Y40	Z40	X41	Y41	Z41	X42	Y42	Z42	X43	Y43	Z43	X44	Y44	Z44	X45	Y45	Z45	X46	Y46	Z46	X47	Y47	Z47	X48	Y48	Z48	X49	Y49	Z49	X50	Y50	Z50	X51	Y51	Z51	X52	Y52	Z52	X53	Y53	Z53	X54	Y54	Z54	X55	Y55	Z55	X56	Y56	Z56	X57	Y57	Z57	X58	Y58	Z58	X59	Y59	Z59	X60	Y60	Z60	X61	Y61	Z61	

736	3.675	56.91554641723634	1180.945190429688	-890.8709716796877	-107.6026916503907	1092.723754882813	-968.3601684570315	-64.31797790527345	1111.369750976563	-813.326110839844	-179.9923400878907	1027.27294921875	-913.472839355469	-404.1698303222657	810.4975585937502	-916.3391113281252	-96.84192657470706	896.9982910156252	-909.5004882812502	-81.64036560058595	946.5526123046877	-1059.066650390625	-171.4637908935547	847.600036621094	-1241.407958984375	-179.9085235595703	802.1758422851565	-1224.381713867188	-207.0842742919922	798.8359985351565	-1278.86962890625	-264.2019958496094	736.3003540039064	-1303.617065429688	-330.7854003906251	797.4279785156252	-1286.246459960938	-431.7642517089845	643.5786132812501	-1138.988647460938	-399.4479980468751	580.1636962890626	-1163.724243164063	-403.8043518066407	641.4793701171876	-1081.1796875	-99.82139587402347	948.671569824219	-756.7266845703126	-209.6936798095704	877.1558837890627	-583.4777221679689	-218.7739257812501	827.607849121094	-587.4055786132814	-252.5024414062501	841.4493408203127	-538.9814453125001	-300.2499694824219	791.7292480468752	-509.995819091797	-376.4832763671876	829.023132324219	-529.7081298828126	-426.053924560547	655.3655395507814	-702.7294311523439	-388.7641906738282	601.9647827148439	-662.0083007812501	-382.7659301757813	651.6970825195314	-757.0142211914064	-385.760955810547	607.4246215820314	-1038.73876953125	-384.061004638672	624.9207763671876	-792.3941040039065	-491.1868896484376	731.1331787109376	-915.927917480469	-519.0856933593751	710.9145507812501	-940.5755004882815	-517.3897705078126	712.8090820312501	-885.4190063476565	-372.3966979980469	520.2842407226564	-1139.322875976563	-290.0035400390626	511.920135498047	-1151.917724609375	-269.1280212402344	547.8322753906251	-1123.835327148438	-256.9881286621094	462.8594665527345	-1163.316772460938	-178.5647735595703	407.7198181152345	-1163.959106445313	-133.9559020996094	398.0235595703126	-1039.723754882813	-146.0441131591797	283.3864746093751	-1121.5888671875	-222.5354309082032	269.7051696777344	-1167.092895507813	-189.7494812011719	250.2677307128907	-1145.682861328125	-231.2149200439454	187.1928253173828	-1111.68212890625	-366.6415710449219	91.53079223632814	-1118.332275390625	-325.6163330078126	98.9794616699219	-1037.154296875	-421.0427856445314	49.98403167724611	-1064.446044921875	-208.8743133544922	52.1988868713379	-1082.466430664063	-216.4026947021485	58.42827224731447	-1130.246459960938	-263.1695556640626	42.01254272460938	-1176.389892578125	-410.0163879394532	536.7581176757814	-693.5131835937501	-345.0273437500001	545.3663330078126	-690.4071655273439	-334.0523071289063	571.6497802734376	-711.4338989257814	-288.4974670410157	485.6300048828126	-675.3302612304689	-173.7720642089844	405.801239013672	-685.8657836914064	-136.9354705810547	401.5969543457032	-804.875427246094	-163.45849609375	266.7290954589844	-752.8538208007814	-249.857406616211	222.3213500976563	-700.2060546875001	-219.6323699951172	205.1515197753907	-731.3347167968751	-246.827377319336	170.4804229736328	-773.339050292969	-366.1379394531251	91.31174468994142	-741.5008544921876	-323.5511169433594	104.9303665161133	-821.3328857421877	-419.2065429687501	52.30299377441408	-799.3977661132815	-209.390609741211	58.17741012573244	-766.5037231445314	-218.8641204833985	58.47188568115236	-725.4641723632814	-261.6693725585938	35.21574783325196	-679.5855102539064	
737	3.68	57.00531387329103	1180.895141601563	-890.894470214844	-107.3652801513672	1092.803588867188	-968.447448730469	-63.84465408325197	1111.82421875	-812.9290771484377	-180.1009826660157	1027.369262695313	-913.6082153320315	-404.1403808593751	810.4983520507815	-916.3093872070315	-96.70343780517581	896.9298095703127	-909.4890747070315	-80.76442718505861	946.2642822265627	-1058.670776367188	-171.4172821044922	847.5758056640627	-1241.5341796875	-179.9743804931641	802.1731567382815	-1224.394775390625	-206.9861450195313	798.8308715820315	-1278.839111328125	-264.3322143554688	736.3375854492189	-1303.654296875	-330.7461547851563	797.5093994140627	-1286.231323242188	-431.7826538085939	643.6189575195314	-1138.940673828125	-399.4867553710939	580.2025146484376	-1163.718505859375	-403.780731201172	641.5126342773439	-1081.163818359375	-99.84106445312503	948.8382568359377	-756.7817993164064	-209.5491333007813	877.186706542969	-583.4953002929689	-218.6540069580079	827.5606689453127	-587.4118652343751	-252.3323364257813	841.4686279296877	-538.9957275390626	-300.1123962402344	791.7783813476565	-509.9577941894532	-376.2743530273438	829.1037597656252	-529.6480102539064	-425.9621582031251	655.3852539062501	-702.7094726562501	-388.6899719238282	601.9536132812501	-661.9823608398439	-382.7093505859376	651.7203979492189	-756.9530029296876	-385.8305969238282	607.4061889648439	-1038.671508789063	-384.061004638672	624.9207763671876	-792.3941040039065	-491.1583557128907	731.2031860351564	-915.8695068359377	-519.1131591796876	710.9647216796876	-940.523132324219	-517.3544921875001	712.8237304687501	-885.317565917969	-372.4210815429688	520.2706298828126	-1139.324096679688	-289.9965209960938	511.8727111816407	-1151.88916015625	-269.1260681152344	547.8704223632814	-1123.894775390625	-257.0272216796876	462.9168395996095	-1163.347045898438	-178.5572052001953	407.7220153808595	-1163.994262695313	-133.9270324707032	398.0988159179689	-1039.798706054688	-146.040267944336	283.3764648437501	-1121.716674804688	-222.5672912597657	269.7134399414063	-1167.107543945313	-189.8014678955078	250.2345581054688	-1145.740600585938	-231.2813720703126	187.1151580810547	-1111.7314453125	-367.7496643066407	92.01734161376955	-1118.442626953125	-325.6271972656251	98.98310852050784	-1037.170043945313	-421.0811462402345	49.98566055297853	-1064.43310546875	-208.8849792480469	52.22615432739259	-1082.40478515625	-216.4734344482422	58.43618774414064	-1130.299682617188	-263.1504211425782	41.95969390869141	-1176.361694335938	-409.9835815429689	536.8244628906251	-693.5830078125001	-344.9220275878907	545.3359375000001	-690.4498291015626	-333.9816589355469	571.7302856445314	-711.3592529296876	-288.4063110351563	485.5904846191407	-675.3833007812501	-173.7106323242188	405.754608154297	-685.9846191406251	-136.929672241211	401.5993652343751	-804.9356689453127	-163.4534912109375	266.7397460937501	-752.9291992187501	-249.8251647949219	222.3414611816407	-700.2250366210939	-219.6066436767579	205.1644744873047	-731.4293823242189	-246.7915344238282	170.4680938720703	-773.3405761718752	-366.1228332519532	91.32028198242189	-741.5019531250001	-323.5973815917969	104.87841796875	-821.2949829101565	-419.1372985839845	52.31369018554689	-799.4960937500002	-209.3793487548829	58.18364334106447	-766.5223388671876	-218.8793945312501	58.45051956176759	-725.4498291015626	-261.6647949218751	35.22544860839844	-679.5852050781251	
738	3.685	57.07088088989259	1180.87939453125	-890.8814086914065	-107.3566513061524	1092.854125976563	-968.4375610351565	-63.84758377075197	1111.79736328125	-812.9832763671877	-179.7848052978516	1027.212524414063	-913.569519042969	-404.0633850097657	810.5352783203127	-916.301696777344	-96.59648895263675	896.888122558594	-909.4605102539065	-80.92346954345705	946.3199462890627	-1058.862060546875	-171.3534698486328	847.4799804687502	-1241.511474609375	-179.9079132080078	802.168395996094	-1224.362670898438	-207.0360412597657	798.773620605469	-1278.8720703125	-264.2820739746094	736.3494873046876	-1303.595458984375	-330.7729492187501	797.5527954101565	-1286.226196289063	-431.854705810547	643.6755371093751	-1138.902709960938	-399.5123901367189	580.2313232421876	-1163.737670898438	-403.8185119628907	641.5180664062501	-1081.109619140625	-99.66917419433597	948.8508300781252	-756.8327026367189	-209.410385131836	877.1875000000002	-583.5189819335939	-218.509017944336	827.5767822265627	-587.4317016601564	-252.1830444335938	841.4948730468752	-538.9859008789064	-300.0287170410157	791.735046386719	-509.9283142089845	-376.1262207031251	829.1177978515627	-529.6601562500001	-425.8155822753907	655.3868408203126	-702.6762084960939	-388.5851135253907	601.9418334960939	-661.9469604492189	-382.5836486816407	651.7480468750001	-756.9751586914064	-385.8420410156251	607.2947998046876	-1038.550903320313	-383.9498291015626	624.9525146484376	-792.321228027344	-491.120819091797	731.2017822265626	-915.825134277344	-519.0834350585939	710.9695434570314	-940.475036621094	-517.3150024414064	712.8575439453126	-885.259460449219	-372.4284057617188	520.2844238281251	-1139.27001953125	-290.0905761718751	511.9117126464845	-1151.955200195313	-269.1989440917969	547.9128417968751	-1123.967529296875	-257.0925292968751	462.9139709472657	-1163.383544921875	-178.6756744384766	407.7522888183595	-1164.119262695313	-133.925521850586	398.1172790527345	-1039.850830078125	-146.0553436279297	283.3815917968751	-1121.729736328125	-222.651840209961	269.7164001464844	-1167.13671875	-189.7736968994141	250.2729797363282	-1145.808837890625	-231.2624206542969	187.1847534179688	-1111.727172851563	-366.6651611328126	91.5298309326172	-1118.369506835938	-325.6329650878907	98.96250152587893	-1037.160522460938	-421.061737060547	49.97912216186525	-1064.372802734375	-208.9831695556641	52.2168426513672	-1082.500244140625	-216.4332275390626	58.41440200805665	-1130.261962890625	-263.1997375488282	41.99131774902344	-1176.390258789063	-409.8488159179689	536.8410034179689	-693.5268554687501	-344.8193969726563	545.3436279296876	-690.3953247070314	-333.8795776367188	571.7352294921876	-711.3828125000001	-288.3370666503907	485.6171264648439	-675.4196777343751	-173.6840057373047	405.6792602539064	-686.0801391601564	-136.9137725830078	401.603973388672	-804.9860839843752	-163.4143524169922	266.7157592773438	-752.9617309570314	-249.7946166992188	222.3282318115235	-700.1862792968751	-219.5406494140626	205.1235046386719	-731.3887939453126	-246.7718963623047	170.4663238525391	-773.4002075195315	-366.1123352050782	91.35109710693361	-741.4932861328126	-323.5137023925782	104.8369522094727	-821.2874145507815	-419.0813903808595	52.30247879028322	-799.477233886719	-209.3838195800782	58.167293548584	-766.5653686523439	-218.842514038086	58.44984817504884	-725.5066528320314	-261.6581115722657	35.2315902709961	-679.5845947265626	
739	3.69	57.11542892456056	1180.786499023438	-890.9849853515627	-107.4362869262696	1092.68896484375	-968.3931274414065	-63.79757308959962	1111.81005859375	-812.988952636719	-179.6985015869141	1027.163208007813	-913.5813598632815	-404.0326538085939	810.4846191406252	-916.2295532226565	-96.38431549072268	896.826843261719	-909.4503173828127	-80.77513885498048	946.2944335937502	-1058.901733398438	-171.1575164794922	847.4268798828127	-1241.493408203125	-179.74267578125	802.0615234375002	-1224.3154296875	-207.0037536621094	798.7559204101565	-1278.85693359375	-264.3079223632813	736.3745117187501	-1303.56640625	-330.7426452636719	797.5626220703127	-1286.12890625	-431.770721435547	643.6859130859376	-1138.834106445313	-399.541961669922	580.2953491210939	-1163.715454101563	-403.8376464843751	641.4553222656251	-1081.118896484375	-99.56643676757815	948.829284667969	-756.8833618164064	-209.2711791992188	877.1841430664065	-583.4862670898439	-218.3795776367188	827.5572509765627	-587.4761352539064	-252.0724182128907	841.4463500976565	-539.0218505859376	-299.8569641113282	791.7735595703127	-509.9556884765626	-375.9486694335938	829.217712402344	-529.5775756835939	-425.7052001953126	655.4628906250001	-702.6569213867189	-388.473846435547	601.9588012695314	-661.9255371093751	-382.4835205078126	651.8057861328126	-756.9352416992189	-385.8175354003907	607.2813720703126	-1038.46484375	-383.9513854980469	624.9568481445314	-792.3213500976565	-491.1011047363282	731.2357788085939	-915.785339355469	-519.0346679687501	710.9606933593751	-940.399597167969	-517.2842407226564	712.8544921875001	-885.2019042968752	-372.5196838378907	520.3067016601564	-1139.300903320313	-290.1244812011719	511.921356201172	-1151.969848632813	-269.1800537109376	547.9152221679689	-1123.97509765625	-257.0346374511719	462.860565185547	-1163.35498046875	-178.6546478271485	407.7539367675782	-1164.128051757813	-133.9620666503907	398.0897216796876	-1039.913452148438	-145.9854736328125	283.3328552246094	-1121.7041015625	-222.6283416748047	269.7521362304688	-1167.156494140625	-189.7827758789063	250.2749328613282	-1145.84326171875	-231.3051910400391	187.1863708496094	-1111.768920898438	-367.2083740234376	91.78546142578126	-1118.3955078125	-325.6619567871094	98.968376159668	-1037.185913085938	-421.067596435547	49.96522521972658	-1064.414916992188	-208.9427490234376	52.16510391235353	-1082.471801757813	-216.4081420898438	58.40146255493165	-1130.272827148438	-263.2064514160157	41.98642349243165	-1176.386596679688	-409.7268676757814	536.7998657226564	-693.4227905273439	-344.7162475585938	545.3609008789064	-690.4025878906251	-333.8123779296876	571.6700439453126	-711.4219360351564	-288.2545471191407	485.5628356933595	-675.4710693359376	-173.5724182128907	405.7205810546876	-686.1393432617189	-136.8340454101563	401.3485107421876	-804.9731445312502	-163.3677825927735	266.7340393066407	-753.0263061523439	-249.7536926269532	222.3169860839844	-700.2736206054689	-219.5559997558594	205.1385345458985	-731.5237426757814	-246.7442169189454	170.4614715576172	-773.421569824219	-366.1227111816407	91.34139251708986	-741.4938354492189	-323.5344543457032	104.710807800293	-821.2410278320315	-419.2363586425782	52.28909301757814	-799.3623046875002	-209.3344268798829	58.19477844238283	-766.4956054687501	-218.8747558593751	58.42073822021486	-725.4991455078126	-261.7354125976563	35.17656326293946	-679.5933837890626	
